<mxfile host="app.diagrams.net" modified="2023-06-26T10:01:25.323Z" agent="Mozilla/5.0 (Macintosh; Intel Mac OS X 10_15_7) AppleWebKit/537.36 (KHTML, like Gecko) Chrome/114.0.0.0 Safari/537.36" etag="CsCL3R2Jd0ZLM_8-gPhP" version="21.4.0" type="github">
  <diagram name="Page-1" id="74e2e168-ea6b-b213-b513-2b3c1d86103e">
    <mxGraphModel dx="1434" dy="742" grid="1" gridSize="10" guides="1" tooltips="1" connect="1" arrows="1" fold="1" page="1" pageScale="1" pageWidth="1100" pageHeight="850" background="none" math="0" shadow="0">
      <root>
        <mxCell id="0" />
        <mxCell id="1" parent="0" />
        <mxCell id="77e6c97f196da883-1" value="好未来数据同步" style="swimlane;html=1;childLayout=stackLayout;startSize=20;rounded=0;shadow=0;labelBackgroundColor=none;strokeWidth=1;fontFamily=Verdana;fontSize=8;align=center;" parent="1" vertex="1">
          <mxGeometry x="70" y="40" width="630" height="750" as="geometry" />
        </mxCell>
        <mxCell id="77e6c97f196da883-2" value="教育号" style="swimlane;html=1;startSize=20;" parent="77e6c97f196da883-1" vertex="1">
          <mxGeometry y="20" width="200" height="730" as="geometry" />
        </mxCell>
        <mxCell id="77e6c97f196da883-3" value="数据同步服务" style="swimlane;html=1;startSize=20;" parent="77e6c97f196da883-1" vertex="1">
          <mxGeometry x="200" y="20" width="210" height="730" as="geometry" />
        </mxCell>
        <mxCell id="77e6c97f196da883-4" value="busi服务" style="swimlane;html=1;startSize=20;" parent="77e6c97f196da883-1" vertex="1">
          <mxGeometry x="410" y="20" width="220" height="730" as="geometry" />
        </mxCell>
        <mxCell id="8wdBAMz6Q6h0R0EXGLgT-3" value="老师全量数据同步" style="swimlane;horizontal=0;whiteSpace=wrap;html=1;" vertex="1" parent="1">
          <mxGeometry x="50" y="80" width="650" height="340" as="geometry" />
        </mxCell>
        <mxCell id="8wdBAMz6Q6h0R0EXGLgT-4" value="开始" style="strokeWidth=1;html=1;shape=mxgraph.flowchart.start_1;whiteSpace=wrap;" vertex="1" parent="8wdBAMz6Q6h0R0EXGLgT-3">
          <mxGeometry x="287.5" y="10" width="72.5" height="30" as="geometry" />
        </mxCell>
        <mxCell id="8wdBAMz6Q6h0R0EXGLgT-5" value="查询学校部门" style="strokeWidth=1;html=1;shape=mxgraph.flowchart.terminator;whiteSpace=wrap;" vertex="1" parent="8wdBAMz6Q6h0R0EXGLgT-3">
          <mxGeometry x="287.5" y="60" width="75" height="30" as="geometry" />
        </mxCell>
        <mxCell id="8wdBAMz6Q6h0R0EXGLgT-6" value="查询部门老师" style="strokeWidth=1;html=1;shape=mxgraph.flowchart.terminator;whiteSpace=wrap;" vertex="1" parent="8wdBAMz6Q6h0R0EXGLgT-3">
          <mxGeometry x="287.5" y="120" width="75" height="30" as="geometry" />
        </mxCell>
        <mxCell id="8wdBAMz6Q6h0R0EXGLgT-7" value="查询老师任教班级" style="strokeWidth=1;html=1;shape=mxgraph.flowchart.terminator;whiteSpace=wrap;" vertex="1" parent="8wdBAMz6Q6h0R0EXGLgT-3">
          <mxGeometry x="285" y="180" width="75" height="30" as="geometry" />
        </mxCell>
        <mxCell id="8wdBAMz6Q6h0R0EXGLgT-10" value="校验是否是已同步班级" style="strokeWidth=1;html=1;shape=mxgraph.flowchart.terminator;whiteSpace=wrap;" vertex="1" parent="8wdBAMz6Q6h0R0EXGLgT-3">
          <mxGeometry x="500" y="180" width="75" height="30" as="geometry" />
        </mxCell>
        <mxCell id="8wdBAMz6Q6h0R0EXGLgT-11" value="封装同步老师信息" style="strokeWidth=1;html=1;shape=mxgraph.flowchart.terminator;whiteSpace=wrap;" vertex="1" parent="8wdBAMz6Q6h0R0EXGLgT-3">
          <mxGeometry x="285" y="240" width="75" height="30" as="geometry" />
        </mxCell>
        <mxCell id="8wdBAMz6Q6h0R0EXGLgT-20" style="edgeStyle=orthogonalEdgeStyle;rounded=0;orthogonalLoop=1;jettySize=auto;html=1;entryX=0.5;entryY=0;entryDx=0;entryDy=0;entryPerimeter=0;" edge="1" parent="1" source="8wdBAMz6Q6h0R0EXGLgT-12" target="8wdBAMz6Q6h0R0EXGLgT-13">
          <mxGeometry relative="1" as="geometry" />
        </mxCell>
        <mxCell id="8wdBAMz6Q6h0R0EXGLgT-12" value="开始" style="strokeWidth=1;html=1;shape=mxgraph.flowchart.start_1;whiteSpace=wrap;" vertex="1" parent="1">
          <mxGeometry x="892.5" y="100" width="72.5" height="30" as="geometry" />
        </mxCell>
        <mxCell id="8wdBAMz6Q6h0R0EXGLgT-21" style="edgeStyle=orthogonalEdgeStyle;rounded=0;orthogonalLoop=1;jettySize=auto;html=1;" edge="1" parent="1" source="8wdBAMz6Q6h0R0EXGLgT-13" target="8wdBAMz6Q6h0R0EXGLgT-14">
          <mxGeometry relative="1" as="geometry" />
        </mxCell>
        <mxCell id="8wdBAMz6Q6h0R0EXGLgT-13" value="查询学校部门" style="strokeWidth=1;html=1;shape=mxgraph.flowchart.terminator;whiteSpace=wrap;" vertex="1" parent="1">
          <mxGeometry x="891.25" y="160" width="75" height="30" as="geometry" />
        </mxCell>
        <mxCell id="8wdBAMz6Q6h0R0EXGLgT-22" style="edgeStyle=orthogonalEdgeStyle;rounded=0;orthogonalLoop=1;jettySize=auto;html=1;entryX=0.5;entryY=0;entryDx=0;entryDy=0;entryPerimeter=0;" edge="1" parent="1" source="8wdBAMz6Q6h0R0EXGLgT-14" target="8wdBAMz6Q6h0R0EXGLgT-15">
          <mxGeometry relative="1" as="geometry" />
        </mxCell>
        <mxCell id="8wdBAMz6Q6h0R0EXGLgT-14" value="查询部门老师" style="strokeWidth=1;html=1;shape=mxgraph.flowchart.terminator;whiteSpace=wrap;" vertex="1" parent="1">
          <mxGeometry x="891.25" y="220" width="75" height="30" as="geometry" />
        </mxCell>
        <mxCell id="8wdBAMz6Q6h0R0EXGLgT-23" style="edgeStyle=orthogonalEdgeStyle;rounded=0;orthogonalLoop=1;jettySize=auto;html=1;entryX=0.5;entryY=0;entryDx=0;entryDy=0;entryPerimeter=0;" edge="1" parent="1" source="8wdBAMz6Q6h0R0EXGLgT-15" target="8wdBAMz6Q6h0R0EXGLgT-17">
          <mxGeometry relative="1" as="geometry" />
        </mxCell>
        <mxCell id="8wdBAMz6Q6h0R0EXGLgT-15" value="查询老师任教班级" style="strokeWidth=1;html=1;shape=mxgraph.flowchart.terminator;whiteSpace=wrap;" vertex="1" parent="1">
          <mxGeometry x="891.25" y="280" width="75" height="30" as="geometry" />
        </mxCell>
        <mxCell id="8wdBAMz6Q6h0R0EXGLgT-24" style="edgeStyle=orthogonalEdgeStyle;rounded=0;orthogonalLoop=1;jettySize=auto;html=1;entryX=0.5;entryY=0;entryDx=0;entryDy=0;entryPerimeter=0;" edge="1" parent="1" source="8wdBAMz6Q6h0R0EXGLgT-16" target="8wdBAMz6Q6h0R0EXGLgT-19">
          <mxGeometry relative="1" as="geometry" />
        </mxCell>
        <mxCell id="8wdBAMz6Q6h0R0EXGLgT-16" value="封装同步老师信息并同步" style="strokeWidth=1;html=1;shape=mxgraph.flowchart.terminator;whiteSpace=wrap;" vertex="1" parent="1">
          <mxGeometry x="891.25" y="410" width="75" height="30" as="geometry" />
        </mxCell>
        <mxCell id="8wdBAMz6Q6h0R0EXGLgT-18" style="edgeStyle=orthogonalEdgeStyle;rounded=0;orthogonalLoop=1;jettySize=auto;html=1;" edge="1" parent="1" source="8wdBAMz6Q6h0R0EXGLgT-17" target="8wdBAMz6Q6h0R0EXGLgT-16">
          <mxGeometry relative="1" as="geometry" />
        </mxCell>
        <mxCell id="8wdBAMz6Q6h0R0EXGLgT-25" style="edgeStyle=orthogonalEdgeStyle;rounded=0;orthogonalLoop=1;jettySize=auto;html=1;entryX=1;entryY=0.5;entryDx=0;entryDy=0;entryPerimeter=0;exitX=1;exitY=0.5;exitDx=0;exitDy=0;exitPerimeter=0;" edge="1" parent="1" source="8wdBAMz6Q6h0R0EXGLgT-17" target="8wdBAMz6Q6h0R0EXGLgT-19">
          <mxGeometry relative="1" as="geometry" />
        </mxCell>
        <mxCell id="8wdBAMz6Q6h0R0EXGLgT-26" value="否，不同步" style="edgeLabel;html=1;align=center;verticalAlign=middle;resizable=0;points=[];" vertex="1" connectable="0" parent="8wdBAMz6Q6h0R0EXGLgT-25">
          <mxGeometry x="-0.2901" y="-2" relative="1" as="geometry">
            <mxPoint as="offset" />
          </mxGeometry>
        </mxCell>
        <mxCell id="8wdBAMz6Q6h0R0EXGLgT-17" value="是否是已同步班级" style="strokeWidth=1;html=1;shape=mxgraph.flowchart.decision;whiteSpace=wrap;" vertex="1" parent="1">
          <mxGeometry x="888.75" y="340" width="80" height="40" as="geometry" />
        </mxCell>
        <mxCell id="8wdBAMz6Q6h0R0EXGLgT-19" value="结束" style="strokeWidth=1;html=1;shape=mxgraph.flowchart.start_1;whiteSpace=wrap;" vertex="1" parent="1">
          <mxGeometry x="898.75" y="470" width="60" height="30" as="geometry" />
        </mxCell>
      </root>
    </mxGraphModel>
  </diagram>
</mxfile>
